<?xml version="1.0" encoding="UTF-8"?>
<!DOCTYPE svg  PUBLIC '-//W3C//DTD SVG 20010904//EN'  'http://www.w3.org/TR/2001/REC-SVG-20010904/DTD/svg10.dtd'>
<svg width="256pt" height="256pt" version="1.0" viewBox="0 0 256 256" xmlns="http://www.w3.org/2000/svg">
<g transform="translate(0 256) scale(.1 -.1)">
<path d="m1102 2549c-264-34-530-167-727-364-202-203-328-458-366-743-14-107-7-320 15-420 54-250 174-470 350-645 106-106 145-127 236-127 112 0 122 8 477 362l322 321-1 69c-1 161 124 280 281 265 223-20 321-286 164-443-54-54-89-68-183-71l-84-2-279-278c-153-153-285-290-293-305-29-55-9-114 50-146 26-14 60-17 211-17 182 0 230 6 370 47 391 114 719 430 849 820 41 121 57 214 63 353 16 369-114 702-374 961-100 100-146 124-234 124-111-1-121-8-476-362l-322-321 1-67c2-206-194-336-374-247-196 96-197 367-3 470 30 16 59 22 118 22l78 1 275 275c172 172 282 289 294 314 37 78-5 139-106 155-69 11-242 11-332-1z"/>
</g>
</svg>
