<?xml version="1.0" encoding="UTF-8"?>
<!DOCTYPE svg  PUBLIC '-//W3C//DTD SVG 20010904//EN'  'http://www.w3.org/TR/2001/REC-SVG-20010904/DTD/svg10.dtd'>
<svg width="1024pt" height="172pt" version="1.0" viewBox="0 0 1024 172" xmlns="http://www.w3.org/2000/svg">
<metadata>Created by potrace 1.16, written by Peter Selinger 2001-2019</metadata>
<g transform="translate(0 172) scale(.1 -.1)">
<path d="m700 1705c-279-56-500-230-619-487-60-130-76-202-76-358 0-99 5-154 19-205 24-92 85-222 140-298 51-73 144-163 181-177 34-13 96-13 132 0 15 6 128 111 250 233 183 182 221 225 217 243-14 54 37 148 97 179 44 23 130 19 170-8 95-64 114-182 43-266-30-36-101-65-148-59-35 4-42-2-236-197-124-125-200-209-200-221 0-57 58-84 180-84 391 0 722 247 836 625 24 80 27 106 27 235 0 128-3 155-27 233-32 107-79 202-139 283-55 72-137 151-172 164-38 15-112 12-143-4-15-8-124-112-242-230l-215-216-1-48c-1-60-32-119-81-152-52-36-135-35-190 2-148 98-79 321 99 322h47l196 196c159 160 195 201 195 224 0 42-17 64-58 76-50 14-202 11-282-5z"/>
<path d="m2577 1500c-65-11-166-60-215-105-123-111-136-321-28-442 59-65 135-102 316-152 191-53 226-65 283-104 117-80 95-207-49-278-58-29-80-34-159-37-149-7-262 40-315 128-43 72-54 80-114 80-36 0-60-5-70-16-20-19-20-18-1-82 12-38 32-69 75-116 104-110 228-160 405-159 166 0 286 43 377 134 87 87 118 206 84 323-36 122-137 189-397 262-278 78-334 116-334 225 0 45 5 62 28 92 107 141 392 114 494-46 15-23 34-48 42-54 19-16 113-17 129-1 36 36-11 152-91 224-119 107-287 153-460 124z"/>
<path d="m4477 1492c-15-17-17-75-17-624 0-690-7-638 87-638 59 0 83 20 83 68v31l33-30c48-45 97-67 174-79 216-34 400 89 458 306 21 79 21 269 0 348-52 197-194 307-393 307-105 0-166-20-226-72l-46-41v205c0 185-2 205-18 220-26 24-113 23-135-1zm530-490c84-44 130-129 140-263 18-239-100-386-291-366-68 7-126 36-165 84-105 128-84 428 36 520 73 56 198 66 280 25z"/>
<path d="m8656 1494c-14-13-16-47-16-221v-205l-35 31c-53 47-109 71-181 80-217 26-389-85-450-291-28-95-26-289 3-383 57-183 195-287 383-288 106-1 173 20 234 74l46 41v-35c0-20 7-43 16-51 18-18 95-22 125-6 18 10 19 28 19 630s-1 620-19 630c-30 16-107 12-125-6zm-151-494c55-27 99-83 120-153 20-68 20-237-1-306-57-192-341-233-452-65-42 63-55 130-50 255 5 121 24 175 83 232 21 21 59 44 84 52 62 20 157 13 216-15z"/>
<path d="m10087 1492c-15-17-17-75-17-624 0-690-7-638 88-638 87 0 82-41 82 640 0 683 6 640-84 640-39 0-57-5-69-18z"/>
<path d="m5572 1478c-9-9-12-160-12-620 0-690-9-628 88-628 86 0 82-25 82 466v429l145-280c80-154 154-288 166-298 14-11 38-17 74-17 35 0 60 6 74 17 12 10 87 144 166 298l145 280v-431c0-491-5-464 84-464 94 0 86-61 86 628 0 460-3 611-12 620-19 19-122 15-147-6-12-9-104-176-205-370-100-195-187-353-192-351-5 1-91 160-191 353-99 192-191 358-203 368-26 21-129 25-148 6z"/>
<path d="m7277 1178c-176-17-310-142-348-326-16-78-7-304 15-367 40-115 125-200 244-246 81-31 233-31 314 0 120 46 192 118 239 239 31 80 39 311 14 398-65 224-229 327-478 302zm188-176c53-27 89-66 117-127 20-44 23-66 23-175 0-110-3-131-24-178-91-203-381-203-472 0-21 47-24 68-24 178 0 109 3 131 23 175 35 77 84 121 162 146 43 14 152 4 195-19z"/>
<path d="m9377 1179c-153-17-288-141-332-304-21-78-21-260-1-338 61-226 244-349 471-318 172 24 304 115 308 213 2 26-3 35-26 46-41 20-102 7-146-33-53-48-98-67-168-73-155-12-270 72-289 212l-7 46h317c303 0 317 1 336 20 24 24 26 79 6 191-43 238-220 366-469 338zm190-177c73-38 123-113 123-187v-35l-247 2-248 3 2 37c5 87 75 167 173 199 41 14 154 2 197-19z"/>
<path d="m3401 1154-22-16 3-317c3-302 5-319 27-374 32-80 77-136 141-175 74-44 119-55 220-55 99 0 154 19 219 78l41 37v-34c0-48 25-68 83-68 34 0 53 6 67 20 19 19 20 33 20 450s-1 431-20 450c-25 25-95 27-128 4-22-15-22-17-22-293 0-326-6-361-74-427-52-50-113-69-196-61-103 9-175 65-200 156-5 20-10 160-10 319 0 269-1 283-20 302-25 25-96 27-129 4z"/>
</g>
</svg>
